<svg xmlns="http://www.w3.org/2000/svg" viewBox="0 0 100 100" width="100" height="100">
  <defs>
    <linearGradient id="bg" x1="0" y1="0" x2="1" y2="1">
      <stop offset="0%" stop-color="#6366f1"/>
      <stop offset="100%" stop-color="#a855f7"/>
    </linearGradient>
  </defs>
  <rect width="100" height="100" rx="20" fill="url(#bg)"/>
  <rect x="18" y="22" width="64" height="44" rx="6" fill="#1e1b4b"/>
  <rect x="24" y="30" width="20" height="4" rx="2" fill="#818cf8"/>
  <rect x="24" y="38" width="32" height="4" rx="2" fill="#6366f1"/>
  <rect x="24" y="46" width="26" height="4" rx="2" fill="#4f46e5"/>
  <rect x="24" y="54" width="36" height="4" rx="2" fill="#4338ca"/>
  <rect x="56" y="30" width="20" height="28" rx="3" fill="#4f46e5" opacity="0.3"/>
  <rect x="60" y="34" width="12" height="2" rx="1" fill="#818cf8"/>
  <rect x="60" y="40" width="8" height="2" rx="1" fill="#818cf8"/>
  <rect x="60" y="46" width="10" height="2" rx="1" fill="#818cf8"/>
  <rect x="60" y="52" width="6" height="2" rx="1" fill="#818cf8"/>
  <rect x="14" y="68" width="72" height="6" rx="3" fill="#1e1b4b"/>
</svg>
