<svg xmlns="http://www.w3.org/2000/svg" viewBox="0 0 512 512" width="512" height="512">
  <defs>
    <linearGradient id="bg512" x1="0" y1="0" x2="1" y2="1">
      <stop offset="0%" stop-color="#6366f1"/>
      <stop offset="100%" stop-color="#a855f7"/>
    </linearGradient>
  </defs>
  <rect width="512" height="512" rx="102" fill="url(#bg512)"/>
  <rect x="90" y="112" width="332" height="224" rx="30" fill="#1e1b4b"/>
  <rect x="122" y="154" width="102" height="22" rx="11" fill="#818cf8"/>
  <rect x="122" y="196" width="164" height="22" rx="11" fill="#6366f1"/>
  <rect x="122" y="238" width="132" height="22" rx="11" fill="#4f46e5"/>
  <rect x="122" y="280" width="180" height="22" rx="11" fill="#4338ca"/>
  <rect x="288" y="154" width="102" height="144" rx="16" fill="#4f46e5" opacity="0.3"/>
  <rect x="308" y="176" width="60" height="10" rx="5" fill="#818cf8"/>
  <rect x="308" y="206" width="44" height="10" rx="5" fill="#818cf8"/>
  <rect x="308" y="236" width="54" height="10" rx="5" fill="#818cf8"/>
  <rect x="308" y="266" width="32" height="10" rx="5" fill="#818cf8"/>
  <rect x="70" y="346" width="372" height="32" rx="16" fill="#1e1b4b"/>
</svg>
