<svg xmlns="http://www.w3.org/2000/svg" viewBox="0 0 192 192" width="192" height="192">
  <defs>
    <linearGradient id="bg192" x1="0" y1="0" x2="1" y2="1">
      <stop offset="0%" stop-color="#6366f1"/>
      <stop offset="100%" stop-color="#a855f7"/>
    </linearGradient>
  </defs>
  <rect width="192" height="192" rx="38" fill="url(#bg192)"/>
  <rect x="34" y="42" width="124" height="84" rx="11" fill="#1e1b4b"/>
  <rect x="46" y="58" width="38" height="8" rx="4" fill="#818cf8"/>
  <rect x="46" y="74" width="62" height="8" rx="4" fill="#6366f1"/>
  <rect x="46" y="90" width="50" height="8" rx="4" fill="#4f46e5"/>
  <rect x="46" y="106" width="68" height="8" rx="4" fill="#4338ca"/>
  <rect x="108" y="58" width="38" height="54" rx="6" fill="#4f46e5" opacity="0.3"/>
  <rect x="116" y="66" width="22" height="4" rx="2" fill="#818cf8"/>
  <rect x="116" y="78" width="16" height="4" rx="2" fill="#818cf8"/>
  <rect x="116" y="90" width="20" height="4" rx="2" fill="#818cf8"/>
  <rect x="116" y="102" width="12" height="4" rx="2" fill="#818cf8"/>
  <rect x="26" y="130" width="140" height="12" rx="6" fill="#1e1b4b"/>
</svg>
